<?xml version="1.0" encoding="UTF-8" standalone="no"?>
<!-- Created with Inkscape (http://www.inkscape.org/) -->

<svg
   xmlns:dc="http://purl.org/dc/elements/1.1/"
   xmlns:cc="http://creativecommons.org/ns#"
   xmlns:rdf="http://www.w3.org/1999/02/22-rdf-syntax-ns#"
   xmlns:svg="http://www.w3.org/2000/svg"
   xmlns="http://www.w3.org/2000/svg"
   xmlns:sodipodi="http://sodipodi.sourceforge.net/DTD/sodipodi-0.dtd"
   xmlns:inkscape="http://www.inkscape.org/namespaces/inkscape"
   version="1.1"
   id="svg2"
   width="800"
   height="189.5"
   viewBox="0 0 800 189.5"
   sodipodi:docname="logo.svg"
   inkscape:version="0.92.1 r15371">
  <metadata
     id="metadata8">
    <rdf:RDF>
      <cc:Work
         rdf:about="">
        <dc:format>image/svg+xml</dc:format>
        <dc:type
           rdf:resource="http://purl.org/dc/dcmitype/StillImage" />
        <dc:title />
      </cc:Work>
    </rdf:RDF>
  </metadata>
  <defs
     id="defs6" />
  <sodipodi:namedview
     pagecolor="#ffffff"
     bordercolor="#666666"
     borderopacity="1"
     objecttolerance="10"
     gridtolerance="10"
     guidetolerance="10"
     inkscape:pageopacity="0"
     inkscape:pageshadow="2"
     inkscape:window-width="2592"
     inkscape:window-height="1779"
     id="namedview4"
     showgrid="false"
     inkscape:zoom="1.7925157"
     inkscape:cx="310.9596"
     inkscape:cy="79.419475"
     inkscape:window-x="-13"
     inkscape:window-y="-13"
     inkscape:window-maximized="1"
     inkscape:current-layer="svg2" />
  <g
     id="g3692"
     transform="matrix(0.72101203,0,0,0.72101203,111.66785,26.660542)">
    <path
       style="opacity:0;fill:#d0d0d0;stroke-width:0.5"
       d="M 29.233166,180.88075 C 29.101243,180.53383 29.051061,142 29.121652,95.25 L 29.25,10.25 48.992051,10.119091 68.7341,9.988181 l 22.600285,22.596191 22.600295,22.596193 9.90766,-9.54842 c 5.44921,-5.251631 15.73939,-15.417258 22.86706,-22.590283 L 159.66881,10 h 19.38609 c 12.83871,0 19.49425,0.175016 19.70635,0.518204 0.43315,0.700846 0.45489,169.727566 0.022,170.428116 -0.50728,0.8208 -38.86082,0.77603 -39.68317,-0.0463 -0.45945,-0.45944 -0.6,-13.57778 -0.6,-55.99999 0,-30.470005 -0.16973,-55.400005 -0.37719,-55.400005 -0.20744,0 -10.05021,9.675 -21.87281,21.5 -14.22052,14.223395 -21.83941,21.499995 -22.51137,21.499995 -0.6663,0 -5.19612,-4.25725 -13.16731,-12.375 C 82.13421,81.348885 70.291585,69.54031 69.87719,69.519105 c -0.20506,-0.0105 -0.43006,25.12467 -0.5,55.855915 L 69.25,181.25 49.361513,181.38075 c -15.643659,0.10284 -19.939679,-0.004 -20.128347,-0.5 z M 223.6,180.9 c -0.46196,-0.46195 -0.6,-20.12943 -0.6,-85.48241 0,-84.349721 0.006,-84.885762 0.99926,-85.417194 0.67313,-0.3602515 7.2065,-0.48838 20.01858,-0.392592 16.25598,0.121536 19.08815,0.2511645 19.49308,0.892196 0.75691,1.198242 0.64726,169.64181 -0.11092,170.4 -0.86146,0.86145 -38.93855,0.86145 -39.8,0 z m 64.20349,-1.6909 C 287.63657,178.77411 287.5,141.01911 287.5,95.309105 c 0,-63.973748 0.13814,-83.247251 0.6,-83.709105 0.88489,-0.884894 47.37856,-0.860928 48.50007,0.025 0.43516,0.34375 6.36924,10.3 13.18681,22.125 13.48478,23.389145 28.73378,49.80469 37.74547,65.385705 L 393.25,109.02141 393.5,60.635705 C 393.6375,34.023566 393.93203,11.96875 394.15451,11.625 394.7277,10.739374 433.01529,10.715291 433.9,11.6 c 0.46185,0.461854 0.6,19.735357 0.6,83.709105 0,45.710005 -0.13657,83.465005 -0.3035,83.899995 -0.27074,0.70554 -2.79352,0.79007 -23.375,0.78324 -12.68932,-0.004 -23.3297,-0.17296 -23.64528,-0.375 -0.31558,-0.20204 -3.3659,-5.20484 -6.77849,-11.11734 -3.41259,-5.9125 -11.28012,-19.525 -17.48338,-30.25 C 356.71107,127.525 346.63542,110.0875 340.524,99.5 334.41259,88.9125 329.20706,80.03625 328.95617,79.775 328.68115,79.488625 328.5,99.05617 328.5,129.05 c 0,38.02778 -0.14137,49.89137 -0.6,50.35 -0.44626,0.44626 -5.62145,0.6 -20.19651,0.6 -17.4082,0 -19.63039,-0.0883 -19.9,-0.7909 z m 170.56805,0.20501 c -0.83271,-0.62953 -0.87177,-5.02573 -0.75,-84.41411 L 457.75,11.25 h 24.24054 24.24051 L 509.5694,17 c 1.83605,3.1625 7.24035,12.478611 12.00945,20.702468 4.76915,8.223857 8.87775,14.939447 9.13025,14.923532 0.25245,-0.0159 5.68685,-9.085833 12.07635,-20.155372 6.3895,-11.069538 11.9567,-20.316377 12.3715,-20.548531 0.9554,-0.534666 46.40495,-0.560213 46.93875,-0.02639 0.21765,0.217643 0.40155,37.945702 0.4087,83.840132 0.0105,66.830901 -0.1132,83.524491 -0.62075,83.846631 -0.3485,0.22121 -10.55505,0.40566 -22.68115,0.40987 -20.3776,0.007 -22.10565,-0.0586 -22.81495,-0.86734 -0.6503,-0.74143 -14.4652,-24.4276 -23.3299,-40 -1.44805,-2.54375 -2.78465,-4.61662 -2.97025,-4.60634 -0.18555,0.0102 -5.8499,9.60916 -12.5874,21.33089 -6.7375,11.72173 -12.7367,21.89459 -13.3316,22.60634 l -1.0816,1.29411 -21.9184,0.1641 c -17.64595,0.13212 -22.08963,0.0346 -22.79686,-0.5 z m 44.40426,-77.75764 c 2.14,-3.76394 3.89085,-7.11517 3.89085,-7.44718 C 506.66665,93.59607 499.03211,80 498.68777,80 498.58449,80 498.5,86.4125 498.5,94.25 c 0,7.8375 0.0866,14.25 0.19248,14.25 0.10587,0 1.94337,-3.07959 4.08332,-6.84353 z M 563,93.458335 c 0,-11.34579 -0.1362,-14.496265 -0.6198,-14.335075 -0.61015,0.203395 -7.58655,11.76222 -8.17065,13.537545 C 553.89945,93.603295 561.7581,108 562.58265,108 562.8122,108 563,101.45625 563,93.458335 Z m 63.7857,85.755955 c -0.70805,-0.70805 -0.78495,-8.9994 -0.77805,-83.875005 0.005,-51.578575 0.1877,-83.373714 0.48245,-83.839285 0.41935,-0.662369 8.81635,-0.728325 71.86735,-0.56449 39.2659,0.10203 71.5626,0.339567 71.7704,0.527859 0.20785,0.188293 0.32035,19.342314 0.25,42.564491 L 770.25,96.25 747.375,96.380045 c -12.58125,0.07153 -22.875,0.22623 -22.875,0.343785 0,0.11756 5.2486,9.28404 11.6636,20.36996 22.2962,38.53083 34.20135,59.16298 34.8018,60.31317 1.3518,2.58944 1.3203,2.59304 -22.68105,2.59304 -16.9069,0 -22.2844,-0.14672 -22.90765,-0.625 -0.4479,-0.34375 -4.9588,-7.825 -10.0241,-16.625 -5.06535,-8.8 -15.00275,-26.0125 -22.0831,-38.25 -7.08035,-12.2375 -15.8312,-27.374455 -19.4464,-33.63768 L 667.25,79.474645 667.12255,129.06403 c -0.0916,35.63208 -0.2847,49.77888 -0.6862,50.26267 -0.4506,0.54295 -4.2667,0.6733 -19.71185,0.6733 -16.7452,0 -19.25185,-0.0988 -19.9388,-0.78571 z"
       id="path3700"
       inkscape:connector-curvature="0" />
    <path
       style="opacity:0.4;fill:#ffffff;stroke-width:0.5"
       d="M 29.833333,180.66666 C 29.65,180.48333 29.5,142.13103 29.5,95.439325 V 10.545313 l 1.625,-0.297953 c 0.89375,-0.163874 9.668071,-0.230319 19.49849,-0.147656 L 68.49698,10.25 91.12553,32.875 c 12.4457,12.44375 22.856,22.625 23.13401,22.625 0.278,0 10.62708,-10.18125 22.99796,-22.625 L 159.75,10.25 h 19.14323 c 16.47217,0 19.20939,0.104648 19.61735,0.75 0.58381,0.923538 0.65658,168.46255 0.0736,169.38095 -0.3136,0.49401 -4.62587,0.60254 -19.86734,0.5 L 159.25,180.75 l -0.1236,-55.5 c -0.068,-30.525 -0.23801,-55.802985 -0.37785,-56.1733 -0.15869,-0.420255 -8.53764,7.47218 -22.29451,21 -12.12215,11.92032 -22.41462,21.73714 -22.87215,21.81517 -0.79154,0.13499 -5.93791,-4.98462 -33.817545,-33.6417 C 74.54723,72.887575 70.10348,68.5 69.889345,68.5 c -0.21414,0 -0.415445,24.91875 -0.447345,55.375 -0.0319,30.45625 -0.1609,55.76875 -0.286665,56.25 -0.21281,0.81435 -1.57196,0.875 -19.608663,0.875 -10.659003,0 -19.530005,-0.15 -19.713339,-0.33334 z m 193.999997,0 C 223.65,180.48333 223.5,142.1449 223.5,95.47016 c 0,-76.922868 0.074,-84.891568 0.79089,-85.166666 C 224.72588,10.136573 233.45588,10 243.69089,10 c 13.80708,0 18.76394,0.154828 19.20911,0.6 0.87263,0.872623 0.87263,168.92737 0,169.8 -0.44569,0.44569 -5.50371,0.6 -19.66666,0.6 -10.48667,0 -19.21667,-0.15 -19.40001,-0.33334 z m 64.39985,-1.78585 C 288.10123,178.53386 288.05104,140.7875 288.12164,95 L 288.25,11.75 312.04316,11.620202 c 22.17322,-0.12096 23.84689,-0.0699 24.58219,0.75 0.43396,0.483889 5.72502,9.429798 11.75793,19.879798 6.03289,10.45 16.89291,29.2375 24.13337,41.75 7.24046,12.5125 14.86747,25.72882 16.94891,29.36961 2.08144,3.64078 3.95319,6.62203 4.15944,6.625 0.20625,0.003 0.375,-21.90456 0.375,-48.68339 0,-40.5624 0.11408,-48.783448 0.68347,-49.256002 0.48968,-0.406399 6.12489,-0.530083 19.875,-0.436222 L 433.75,11.75 v 83.75 83.75 l -23.04303,0.12994 c -21.47207,0.12108 -23.094,0.07 -23.79056,-0.75 C 386.50526,178.14597 378.77301,164.925 369.73361,149.25 335.72328,90.273515 329.90483,80.217045 329.08846,79 328.30036,77.82508 328.23498,80.79823 328,128.5 l -0.25,50.75 -19.63846,0.13081 c -15.44356,0.10288 -19.68971,-0.004 -19.87836,-0.5 z M 458.625,179.17753 C 458.12854,178.97031 458,161.75605 458,95.475925 c 0,-81.983687 0.0169,-83.44978 0.96713,-83.958333 1.11428,-0.596348 44.70712,-0.673737 46.21167,-0.08204 0.5305,0.208646 6.1327,9.358895 13.06515,21.339857 6.675,11.536024 12.4018,20.974589 12.7263,20.974589 0.32445,0 5.93275,-9.225 12.46285,-20.5 l 11.8729,-20.5 23.097,-0.129993 23.097,-0.129994 0.1,81.504992 c 0.055,44.827747 0.11125,82.348747 0.125,83.379997 l 0.025,1.875 -22.3655,0.13014 -22.36545,0.13014 -1.1815,-1.88014 c -0.6498,-1.03408 -6.42325,-10.99264 -12.8299,-22.13014 -10.78475,-18.7486 -13.1569,-22.55964 -13.6764,-21.97222 -0.1081,0.12222 -2.3335,3.93472 -4.94535,8.47222 -9.6947,16.84225 -20.05495,34.77569 -20.55725,35.58422 -0.3315,0.53358 -1.5202,0.95458 -3.29845,1.16819 -3.39688,0.40804 -41.03138,0.78984 -41.9052,0.42512 z m 44.5799,-76.33136 C 505.5672,98.77406 507.5,95.162105 507.5,94.8196 507.5,94.182515 499.3083,79.63423 498.46577,78.775 498.17788,78.48141 498,84.32148 498,94.066665 c 0,13.571745 0.16332,16.950945 0.78822,16.308335 0.0669,-0.0687 2.05438,-3.45673 4.41668,-7.52883 z m 60.78745,-9.25068 C 563.98735,83.823365 563.7921,77.462535 563.4822,77 563.0535,76.36014 562.83365,76.424155 561.98535,77.43593 560.2917,79.455945 553.5,91.741785 553.5,92.785505 c 0,0.54331 1.8152,4.13258 4.0338,7.976165 5.17285,8.9616 5.4171,9.32768 5.98815,8.97475 0.28805,-0.17802 0.475,-6.59323 0.4704,-16.14093 z m 63.1134,85.31028 c -0.94615,-0.94618 -0.8758,-166.559199 0.0711,-167.345068 0.49855,-0.41374 19.36965,-0.462804 71.625,-0.186222 L 769.75,11.75 v 42 42 l -22.4802,0.13022 c -12.36415,0.07163 -22.66615,0.316135 -22.8934,0.543365 -0.2272,0.22723 4.39165,8.718625 10.26415,18.869775 31.1099,53.77626 35.9801,62.30184 36.042,63.0935 0.0628,0.80394 -1.4585,0.87139 -22.18255,0.98342 -12.2375,0.0661 -22.50595,-0.0464 -22.81875,-0.25 -0.4804,-0.31273 -26.45865,-44.97738 -51.6111,-88.735335 -3.7511,-6.525785 -6.9878,-11.869535 -7.19275,-11.875 -0.20495,-0.0054 -0.42995,22.658805 -0.5,50.365055 l -0.1274,50.375 -19.26925,0.13077 c -14.56995,0.0989 -19.41695,-0.017 -19.875,-0.475 z"
       id="path3698"
       inkscape:connector-curvature="0" />
    <path
       style="opacity:0;fill:#5c5c5c;stroke-width:0.5"
       d="M 29.805727,179.71492 C 29.637577,179.27673 29.5,141.29411 29.5,95.309105 29.5,30.946468 29.638117,11.561882 30.1,11.1 c 0.445347,-0.445348 5.436073,-0.6 19.362328,-0.6 h 18.762327 l 22.76991,22.75 C 103.51801,45.7625 113.9853,56 114.25522,56 114.52513,56 124.98528,45.7625 137.5,33.25 L 160.25403,10.5 h 18.44675 c 12.92778,0 18.6495,0.168268 19.12443,0.562423 0.56626,0.469948 0.65689,14.425114 0.55123,84.874997 L 198.25,180.25 l -19.375,0.13087 -19.375,0.13087 -0.008,-55.63087 C 159.487,90.210255 159.3035,68.96742 159.00438,68.5 c -0.38309,-0.598635 -2.87903,1.62142 -12.36734,11.00036 -6.53806,6.4627 -16.66703,16.471585 -22.50882,22.24197 l -10.62143,10.49161 -11.87857,-12.11079 C 95.095355,93.46222 85.368795,83.50958 80.013985,78.00618 74.65918,72.50278 69.9914,68 69.64114,68 69.129905,68 68.97923,79.068755 68.877155,124.125 L 68.75,180.25 49.430728,180.38082 c -17.29162,0.11709 -19.35136,0.0472 -19.625001,-0.6659 z m 194.427513,0.16603 C 224.10127,179.53393 224.05105,141.3375 224.12164,95 L 224.25,10.75 h 19.25 19.25 v 84.75 84.75 l -19.13841,0.13095 c -15.04339,0.10294 -19.18974,-0.004 -19.37835,-0.5 z m 64.89028,-0.79403 c -0.49869,-0.31663 -0.60068,-17.37168 -0.5,-83.61734 L 288.75,12.25 l 23.61719,-0.129891 23.6172,-0.129891 1.05025,1.629891 c 0.57763,0.89644 13.4624,23.101798 28.63281,49.345241 15.1704,26.243445 27.8627,47.80558 28.20511,47.91585 0.49331,0.15888 0.64901,-10.05816 0.75,-49.21535 L 394.75,12.25 H 414 433.25 l 0.12648,83.21958 c 0.10068,66.24566 -0.002,83.30071 -0.5,83.61734 -0.34456,0.21878 -10.42722,0.40121 -22.40591,0.40542 -16.65407,0.006 -21.97626,-0.13942 -22.6158,-0.61734 -0.46,-0.34375 -13.96395,-23.33698 -30.00877,-51.09607 C 341.80117,100.01984 328.40952,77.21984 328.08679,77.11226 327.64029,76.96343 327.5,89.107425 327.5,127.90484 c 0,46.0333 -0.0769,51.01766 -0.79089,51.29166 -1.18527,0.45483 -36.86046,0.35082 -37.58559,-0.10958 z m 169.70981,-0.42026 C 458.65,178.48333 458.5,140.92708 458.5,95.208335 c 0,-66.032166 0.12852,-83.17686 0.625,-83.377194 1.00081,-0.403836 45.565,-0.354003 46.2025,0.05166 0.3176,0.202121 5.845,9.479926 12.2831,20.617343 6.43805,11.137418 12.29645,21.149851 13.0186,22.249851 1.45255,2.21264 20.24615,34.871195 25.3708,44.08813 1.7875,3.214915 4.45385,7.772785 5.92525,10.128585 2.30615,3.69239 20.15325,34.45031 34.98125,60.28717 2.5264,4.40214 4.5935,8.3982 4.5935,8.88014 0,0.82386 -1.33365,0.86849 -22.303,0.74612 l -22.30295,-0.13014 -12.7203,-22 c -6.99615,-12.1 -13.58765,-23.35 -14.64785,-25 -1.71105,-2.66301 -11.64595,-19.94328 -26.23105,-45.625005 -2.69405,-4.74375 -5.10269,-8.625 -5.35252,-8.625 -0.27153,0 -0.31849,19.962745 -0.11675,49.630535 0.25941,38.14876 0.19888,49.88951 -0.26164,50.74999 L 496.96481,179 h -18.89907 c -10.39449,0 -19.04908,-0.15 -19.23241,-0.33334 z m 168.39992,-0.28571 c -0.132,-0.34702 -0.1822,-37.98095 -0.1116,-83.63095 l 0.12835,-83 h 71 71 l 0.12785,41.820415 c 0.1156,37.811415 0.0518,41.84961 -0.6659,42.125 C 768.2754,95.862935 757.9241,96 745.7091,96 733.4941,96 723.5,96.189885 723.5,96.42196 c 0,0.23208 1.8736,3.66333 4.16355,7.625 21.23205,36.73189 41.80105,72.39875 42.25025,73.2623 0.30305,0.58259 0.40895,1.20134 0.23525,1.375 C 769.9754,178.85791 759.98135,179 747.94,179 h -21.8933 l -0.8215,-1.125 C 724.7734,177.25625 711.54415,154.49629 695.82685,127.29732 680.1096,100.09834 667.025,77.879565 666.75,77.92225 666.4224,77.9731 666.1638,95.36961 666,128.37493 l -0.25,50.37507 -19.1384,0.13095 c -15.0434,0.10294 -19.18975,-0.004 -19.37835,-0.5 z"
       id="path3696"
       inkscape:connector-curvature="0" />
    <path
       style="opacity:0.4;fill:#ffffff;stroke-width:0.5"
       d="M 30.5,95.75 V 11.5 H 49.372983 68.245965 L 91,34.25 C 103.51472,46.7625 113.97906,57 114.25408,57 114.5291,57 124.9907,46.760424 137.50206,34.245386 L 160.25,11.490771 179,11.620386 197.75,11.75 v 84 84 l -18.875,0.13101 -18.875,0.13101 v -56.2717 c 0,-51.12584 -0.0732,-56.299785 -0.80016,-56.578755 -0.57969,-0.22245 -6.88304,5.77468 -22.87709,21.76569 C 124.18045,101.06727 114.01652,111 113.73625,111 113.45597,111 107.94442,105.59857 101.48833,98.99683 66.730755,63.45507 69.51391,66.15407 68.72131,67.220565 68.102985,68.052555 68,76.17288 68,124.09556 V 180 H 49.25 30.5 Z m 194.33333,83.91666 C 224.65,179.48333 224.5,141.5949 224.5,95.47016 c 0,-76.010999 0.074,-83.891587 0.79089,-84.166666 C 225.72588,11.136573 234.00588,11 243.69089,11 c 13.02931,0 17.76516,0.156049 18.20911,0.6 0.46186,0.461854 0.6,19.735357 0.6,83.709105 0,45.710005 -0.13657,83.465005 -0.30349,83.899995 -0.26913,0.70133 -2.3831,0.7909 -18.66667,0.7909 -10.09974,0 -18.51317,-0.15 -18.69651,-0.33334 z M 289.12352,95.625 289.25,12.75 l 23.1146,-0.129986 23.11461,-0.129987 1.21749,1.879987 c 0.66962,1.033992 10.05077,17.179986 20.847,35.879986 10.79623,18.7 23.26771,40.3 27.71439,48 4.72076,8.1746 8.42862,14.06708 8.91097,14.16119 0.76301,0.14889 0.83583,-3.65071 0.95352,-49.749995 L 395.25,12.75 H 414 432.75 l 0.12648,82.880095 0.12647,82.880095 -22.58603,-0.1301 -22.58603,-0.13009 -5.08256,-8.75 c -2.79541,-4.8125 -16.1737,-27.94039 -29.72956,-51.3953 -13.55585,-23.45491 -24.8994,-42.561165 -25.20788,-42.45835 -0.40855,0.136175 -0.59548,14.128835 -0.68824,51.5203 L 326.9953,178.5 H 307.99618 288.99705 Z M 459.625,178.16886 C 459.12853,177.96853 459,160.90716 459,95.208335 V 12.5 h 23.15951 23.15954 l 11.053,19.125 c 6.07915,10.51875 21.3329,36.9 33.89725,58.625 22.4002,38.73228 43.7173,75.66525 48.1398,83.4048 1.41155,2.47022 2.05655,4.07957 1.7556,4.3805 -0.29015,0.29013 -8.7351,0.42479 -21.6483,0.3452 L 557.3438,178.25 549.109,164 c -4.52915,-7.8375 -13.69,-23.7 -20.3575,-35.25 C 496.66033,73.15889 498.23417,75.79626 497.44335,76.285015 497.1903,76.441405 497,98.179615 497,126.92951 c 0,38.51038 -0.14128,50.51176 -0.6,50.97049 -0.44569,0.44569 -5.17143,0.58985 -18.375,0.56052 -9.77625,-0.0217 -18.05625,-0.15296 -18.4,-0.29166 z m 168.21435,0.004 C 627.6527,177.98603 627.5,140.6574 627.5,95.22016 c 0,-74.106345 0.0797,-82.643751 0.7739,-82.910142 0.42565,-0.163334 32.26315,-0.150213 70.75,0.02916 L 769,12.665308 V 53.832655 95 h -22.6888 c -18.12815,0 -22.79835,0.132035 -23.2339,0.65687 -0.646,0.77835 -2.26105,-2.1272 25.5952,46.04632 11.43445,19.77426 20.67255,36.14301 20.5292,36.375 -0.1434,0.232 -9.77505,0.42181 -21.4037,0.42181 -19.51645,0 -21.20085,-0.0673 -21.89485,-0.875 -0.4135,-0.48125 -5.94735,-9.875 -12.2974,-20.875 -38.49955,-66.69136 -46.59455,-80.5 -47.1913,-80.5 -0.5466,0 -0.7088,9.04396 -0.91445,51 l -0.25,51 -18.53565,0.131 c -10.19465,0.072 -18.6884,-0.0217 -18.875,-0.20833 z"
       id="path3694"
       inkscape:connector-curvature="0" />
  </g>
</svg>
