<?xml version="1.0" encoding="UTF-8" standalone="no"?>

<svg
   xmlns:dc="http://purl.org/dc/elements/1.1/"
   xmlns:cc="http://creativecommons.org/ns#"
   xmlns:rdf="http://www.w3.org/1999/02/22-rdf-syntax-ns#"
   xmlns:svg="http://www.w3.org/2000/svg"
   xmlns="http://www.w3.org/2000/svg"
   xmlns:sodipodi="http://sodipodi.sourceforge.net/DTD/sodipodi-0.dtd"
   xmlns:inkscape="http://www.inkscape.org/namespaces/inkscape"
   version="1.1"
   id="svg2"
   width="800"
   height="189.5"
   viewBox="0 0 800 189.5"
   sodipodi:docname="logo.svg"
   inkscape:version="0.92.1 r15371">
  <metadata
     id="metadata8">
    <rdf:RDF>
      <cc:Work
         rdf:about="">
        <dc:format>image/svg+xml</dc:format>
        <dc:type
           rdf:resource="http://purl.org/dc/dcmitype/StillImage" />
        <dc:title />
      </cc:Work>
    </rdf:RDF>
  </metadata>
  <defs
     id="defs6" />
  <sodipodi:namedview
     pagecolor="#ffffff"
     bordercolor="#666666"
     borderopacity="1"
     objecttolerance="10"
     gridtolerance="10"
     guidetolerance="10"
     inkscape:pageopacity="0"
     inkscape:pageshadow="2"
     inkscape:window-width="2592"
     inkscape:window-height="1779"
     id="namedview4"
     showgrid="false"
     inkscape:zoom="1.7925157"
     inkscape:cx="310.9596"
     inkscape:cy="79.419475"
     inkscape:window-x="-13"
     inkscape:window-y="-13"
     inkscape:window-maximized="1"
     inkscape:current-layer="svg2" />
  <g
     id="g3692"
     transform="matrix(0.72101203,0,0,0.72101203,111.66785,26.660542)">
    <path
       style="opacity:0.4;fill:#ffffff;stroke-width:0.5"
       d="M 29.833333,180.66666 C 29.65,180.48333 29.5,142.13103 29.5,95.439325 V 10.545313 l 1.625,-0.297953 c 0.89375,-0.163874 9.668071,-0.230319 19.49849,-0.147656 L 68.49698,10.25 91.12553,32.875 c 12.4457,12.44375 22.856,22.625 23.13401,22.625 0.278,0 10.62708,-10.18125 22.99796,-22.625 L 159.75,10.25 h 19.14323 c 16.47217,0 19.20939,0.104648 19.61735,0.75 0.58381,0.923538 0.65658,168.46255 0.0736,169.38095 -0.3136,0.49401 -4.62587,0.60254 -19.86734,0.5 L 159.25,180.75 l -0.1236,-55.5 c -0.068,-30.525 -0.23801,-55.802985 -0.37785,-56.1733 -0.15869,-0.420255 -8.53764,7.47218 -22.29451,21 -12.12215,11.92032 -22.41462,21.73714 -22.87215,21.81517 -0.79154,0.13499 -5.93791,-4.98462 -33.817545,-33.6417 C 74.54723,72.887575 70.10348,68.5 69.889345,68.5 c -0.21414,0 -0.415445,24.91875 -0.447345,55.375 -0.0319,30.45625 -0.1609,55.76875 -0.286665,56.25 -0.21281,0.81435 -1.57196,0.875 -19.608663,0.875 -10.659003,0 -19.530005,-0.15 -19.713339,-0.33334 z m 193.999997,0 C 223.65,180.48333 223.5,142.1449 223.5,95.47016 c 0,-76.922868 0.074,-84.891568 0.79089,-85.166666 C 224.72588,10.136573 233.45588,10 243.69089,10 c 13.80708,0 18.76394,0.154828 19.20911,0.6 0.87263,0.872623 0.87263,168.92737 0,169.8 -0.44569,0.44569 -5.50371,0.6 -19.66666,0.6 -10.48667,0 -19.21667,-0.15 -19.40001,-0.33334 z m 64.39985,-1.78585 C 288.10123,178.53386 288.05104,140.7875 288.12164,95 L 288.25,11.75 312.04316,11.620202 c 22.17322,-0.12096 23.84689,-0.0699 24.58219,0.75 0.43396,0.483889 5.72502,9.429798 11.75793,19.879798 6.03289,10.45 16.89291,29.2375 24.13337,41.75 7.24046,12.5125 14.86747,25.72882 16.94891,29.36961 2.08144,3.64078 3.95319,6.62203 4.15944,6.625 0.20625,0.003 0.375,-21.90456 0.375,-48.68339 0,-40.5624 0.11408,-48.783448 0.68347,-49.256002 0.48968,-0.406399 6.12489,-0.530083 19.875,-0.436222 L 433.75,11.75 v 83.75 83.75 l -23.04303,0.12994 c -21.47207,0.12108 -23.094,0.07 -23.79056,-0.75 C 386.50526,178.14597 378.77301,164.925 369.73361,149.25 335.72328,90.273515 329.90483,80.217045 329.08846,79 328.30036,77.82508 328.23498,80.79823 328,128.5 l -0.25,50.75 -19.63846,0.13081 c -15.44356,0.10288 -19.68971,-0.004 -19.87836,-0.5 z M 458.625,179.17753 C 458.12854,178.97031 458,161.75605 458,95.475925 c 0,-81.983687 0.0169,-83.44978 0.96713,-83.958333 1.11428,-0.596348 44.70712,-0.673737 46.21167,-0.08204 0.5305,0.208646 6.1327,9.358895 13.06515,21.339857 6.675,11.536024 12.4018,20.974589 12.7263,20.974589 0.32445,0 5.93275,-9.225 12.46285,-20.5 l 11.8729,-20.5 23.097,-0.129993 23.097,-0.129994 0.1,81.504992 c 0.055,44.827747 0.11125,82.348747 0.125,83.379997 l 0.025,1.875 -22.3655,0.13014 -22.36545,0.13014 -1.1815,-1.88014 c -0.6498,-1.03408 -6.42325,-10.99264 -12.8299,-22.13014 -10.78475,-18.7486 -13.1569,-22.55964 -13.6764,-21.97222 -0.1081,0.12222 -2.3335,3.93472 -4.94535,8.47222 -9.6947,16.84225 -20.05495,34.77569 -20.55725,35.58422 -0.3315,0.53358 -1.5202,0.95458 -3.29845,1.16819 -3.39688,0.40804 -41.03138,0.78984 -41.9052,0.42512 z m 44.5799,-76.33136 C 505.5672,98.77406 507.5,95.162105 507.5,94.8196 507.5,94.182515 499.3083,79.63423 498.46577,78.775 498.17788,78.48141 498,84.32148 498,94.066665 c 0,13.571745 0.16332,16.950945 0.78822,16.308335 0.0669,-0.0687 2.05438,-3.45673 4.41668,-7.52883 z m 60.78745,-9.25068 C 563.98735,83.823365 563.7921,77.462535 563.4822,77 563.0535,76.36014 562.83365,76.424155 561.98535,77.43593 560.2917,79.455945 553.5,91.741785 553.5,92.785505 c 0,0.54331 1.8152,4.13258 4.0338,7.976165 5.17285,8.9616 5.4171,9.32768 5.98815,8.97475 0.28805,-0.17802 0.475,-6.59323 0.4704,-16.14093 z m 63.1134,85.31028 c -0.94615,-0.94618 -0.8758,-166.559199 0.0711,-167.345068 0.49855,-0.41374 19.36965,-0.462804 71.625,-0.186222 L 769.75,11.75 v 42 42 l -22.4802,0.13022 c -12.36415,0.07163 -22.66615,0.316135 -22.8934,0.543365 -0.2272,0.22723 4.39165,8.718625 10.26415,18.869775 31.1099,53.77626 35.9801,62.30184 36.042,63.0935 0.0628,0.80394 -1.4585,0.87139 -22.18255,0.98342 -12.2375,0.0661 -22.50595,-0.0464 -22.81875,-0.25 -0.4804,-0.31273 -26.45865,-44.97738 -51.6111,-88.735335 -3.7511,-6.525785 -6.9878,-11.869535 -7.19275,-11.875 -0.20495,-0.0054 -0.42995,22.658805 -0.5,50.365055 l -0.1274,50.375 -19.26925,0.13077 c -14.56995,0.0989 -19.41695,-0.017 -19.875,-0.475 z"
       id="path3698"
       inkscape:connector-curvature="0" />
    <path
       style="opacity:0.9;fill:#ffffff;stroke-width:0.5"
       d="M 30.5,95.75 V 11.5 H 49.372983 68.245965 L 91,34.25 C 103.51472,46.7625 113.97906,57 114.25408,57 114.5291,57 124.9907,46.760424 137.50206,34.245386 L 160.25,11.490771 179,11.620386 197.75,11.75 v 84 84 l -18.875,0.13101 -18.875,0.13101 v -56.2717 c 0,-51.12584 -0.0732,-56.299785 -0.80016,-56.578755 -0.57969,-0.22245 -6.88304,5.77468 -22.87709,21.76569 C 124.18045,101.06727 114.01652,111 113.73625,111 113.45597,111 107.94442,105.59857 101.48833,98.99683 66.730755,63.45507 69.51391,66.15407 68.72131,67.220565 68.102985,68.052555 68,76.17288 68,124.09556 V 180 H 49.25 30.5 Z m 194.33333,83.91666 C 224.65,179.48333 224.5,141.5949 224.5,95.47016 c 0,-76.010999 0.074,-83.891587 0.79089,-84.166666 C 225.72588,11.136573 234.00588,11 243.69089,11 c 13.02931,0 17.76516,0.156049 18.20911,0.6 0.46186,0.461854 0.6,19.735357 0.6,83.709105 0,45.710005 -0.13657,83.465005 -0.30349,83.899995 -0.26913,0.70133 -2.3831,0.7909 -18.66667,0.7909 -10.09974,0 -18.51317,-0.15 -18.69651,-0.33334 z M 289.12352,95.625 289.25,12.75 l 23.1146,-0.129986 23.11461,-0.129987 1.21749,1.879987 c 0.66962,1.033992 10.05077,17.179986 20.847,35.879986 10.79623,18.7 23.26771,40.3 27.71439,48 4.72076,8.1746 8.42862,14.06708 8.91097,14.16119 0.76301,0.14889 0.83583,-3.65071 0.95352,-49.749995 L 395.25,12.75 H 414 432.75 l 0.12648,82.880095 0.12647,82.880095 -22.58603,-0.1301 -22.58603,-0.13009 -5.08256,-8.75 c -2.79541,-4.8125 -16.1737,-27.94039 -29.72956,-51.3953 -13.55585,-23.45491 -24.8994,-42.561165 -25.20788,-42.45835 -0.40855,0.136175 -0.59548,14.128835 -0.68824,51.5203 L 326.9953,178.5 H 307.99618 288.99705 Z M 459.625,178.16886 C 459.12853,177.96853 459,160.90716 459,95.208335 V 12.5 h 23.15951 23.15954 l 11.053,19.125 c 6.07915,10.51875 21.3329,36.9 33.89725,58.625 22.4002,38.73228 43.7173,75.66525 48.1398,83.4048 1.41155,2.47022 2.05655,4.07957 1.7556,4.3805 -0.29015,0.29013 -8.7351,0.42479 -21.6483,0.3452 L 557.3438,178.25 549.109,164 c -4.52915,-7.8375 -13.69,-23.7 -20.3575,-35.25 C 496.66033,73.15889 498.23417,75.79626 497.44335,76.285015 497.1903,76.441405 497,98.179615 497,126.92951 c 0,38.51038 -0.14128,50.51176 -0.6,50.97049 -0.44569,0.44569 -5.17143,0.58985 -18.375,0.56052 -9.77625,-0.0217 -18.05625,-0.15296 -18.4,-0.29166 z m 168.21435,0.004 C 627.6527,177.98603 627.5,140.6574 627.5,95.22016 c 0,-74.106345 0.0797,-82.643751 0.7739,-82.910142 0.42565,-0.163334 32.26315,-0.150213 70.75,0.02916 L 769,12.665308 V 53.832655 95 h -22.6888 c -18.12815,0 -22.79835,0.132035 -23.2339,0.65687 -0.646,0.77835 -2.26105,-2.1272 25.5952,46.04632 11.43445,19.77426 20.67255,36.14301 20.5292,36.375 -0.1434,0.232 -9.77505,0.42181 -21.4037,0.42181 -19.51645,0 -21.20085,-0.0673 -21.89485,-0.875 -0.4135,-0.48125 -5.94735,-9.875 -12.2974,-20.875 -38.49955,-66.69136 -46.59455,-80.5 -47.1913,-80.5 -0.5466,0 -0.7088,9.04396 -0.91445,51 l -0.25,51 -18.53565,0.131 c -10.19465,0.072 -18.6884,-0.0217 -18.875,-0.20833 z"
       id="path3694"
       inkscape:connector-curvature="0" />
  </g>
</svg>
